<svg xmlns="http://www.w3.org/2000/svg" xmlns:xlink="http://www.w3.org/1999/xlink" viewBox="0,0,256,256" width="48px" height="48px"><g fill="#ffffff" fill-rule="nonzero" stroke="none" stroke-width="1" stroke-linecap="butt" stroke-linejoin="miter" stroke-miterlimit="10" stroke-dasharray="" stroke-dashoffset="0" font-family="none" font-weight="none" font-size="none" text-anchor="none" style="mix-blend-mode: normal"><g transform="scale(5.33333,5.33333)"><path d="M35.48438,5.98438c-0.61065,0.00015 -1.16026,0.37042 -1.38978,0.93629c-0.22952,0.56587 -0.09314,1.21439 0.34486,1.63988l2.43945,2.43945h-1.37891c-8.66862,0 -16.15963,5.1421 -19.55469,12.55273c-0.24454,0.4903 -0.20234,1.07492 0.1101,1.52501c0.31244,0.45009 0.8454,0.69404 1.39025,0.63637c0.54486,-0.05767 1.01493,-0.40781 1.22621,-0.91333c2.91894,-6.37137 9.34475,-10.80078 16.82813,-10.80078h1.37891l-2.43945,2.43945c-0.39185,0.37623 -0.54969,0.9349 -0.41265,1.46055c0.13704,0.52565 0.54754,0.93616 1.07319,1.07319c0.52565,0.13704 1.08432,-0.0208 1.46055,-0.41265l4.87109,-4.87109c0.37156,-0.28495 0.58875,-0.72705 0.58721,-1.19529c-0.00153,-0.46824 -0.22161,-0.90891 -0.59503,-1.19142l-4.86328,-4.86328c-0.28248,-0.2909 -0.67069,-0.45506 -1.07617,-0.45508zM12.5,6c-3.57194,0 -6.5,2.92806 -6.5,6.5v23c0,3.57194 2.92806,6.5 6.5,6.5h23c3.57194,0 6.5,-2.92806 6.5,-6.5v-8c0.00765,-0.54095 -0.27656,-1.04412 -0.74381,-1.31683c-0.46725,-0.27271 -1.04514,-0.27271 -1.51238,0c-0.46725,0.27271 -0.75146,0.77588 -0.74381,1.31683v8c0,1.95006 -1.54994,3.5 -3.5,3.5h-23c-1.95006,0 -3.5,-1.54994 -3.5,-3.5v-23c0,-1.95006 1.54994,-3.5 3.5,-3.5h8c0.54095,0.00765 1.04412,-0.27656 1.31683,-0.74381c0.27271,-0.46725 0.27271,-1.04514 0,-1.51238c-0.27271,-0.46725 -0.77588,-0.75146 -1.31683,-0.74381zM15.78711,27.94141c-0.77,-0.02816 -1.43612,0.53158 -1.54101,1.29492c-0.16236,1.06559 -0.24609,2.15516 -0.24609,3.26367c-0.00765,0.54095 0.27656,1.04412 0.74381,1.31683c0.46725,0.27271 1.04514,0.27271 1.51238,0c0.46725,-0.27271 0.75146,-0.77588 0.74381,-1.31683c0,-0.95749 0.0713,-1.89609 0.21094,-2.8125c0.07101,-0.4254 -0.04451,-0.86078 -0.31706,-1.19502c-0.27255,-0.33424 -0.67578,-0.53502 -1.10677,-0.55107z"></path></g></g></svg>